<?xml version="1.0" encoding="UTF-8"?>
<svg width="151px" height="24px" viewBox="0 0 151 24" version="1.1" xmlns="http://www.w3.org/2000/svg"
     xmlns:xlink="http://www.w3.org/1999/xlink">
  <defs>
    <polygon id="path-1"
             points="5.88995863e-05 3.90964362e-05 150.319603 3.90964362e-05 150.319603 23.9995 5.88995863e-05 23.9995"></polygon>
  </defs>
  <g id="Symbols" stroke="none" stroke-width="1" fill="none" fill-rule="evenodd">
    <g id="Navigation-/-Mini" transform="translate(-24.000000, -16.000000)">
      <g id="gradle-enterprise-secondary-dark" transform="translate(24.000000, 16.000000)">
        <mask id="mask-2" fill="white">
          <use xlink:href="#path-1"></use>
        </mask>
        <g id="Clip-2"></g>
        <path
          d="M19.446236,9.6829 L18.1020607,9.0079 L18.1020607,9.0049 C18.1020607,8.5389 18.4797767,8.16123333 18.9458374,8.16123333 C19.4115648,8.16123333 19.7896141,8.5389 19.7896141,9.0049 C19.7896141,9.28323333 19.6542632,9.52923333 19.446236,9.6829 L19.446236,9.6829 Z M17.9947134,20.3409 L19.8492886,20.3409 C19.8776256,18.7095667 20.2253376,14.7375667 22.8163422,12.7992333 C25.8480709,10.5312333 27.5372912,8.1209 27.7013126,5.82923333 C27.852999,3.71523333 26.6938479,2.38023333 26.3351344,2.02156667 C25.6027056,1.2889 24.6289119,0.8769 23.5931102,0.860566667 C22.5646427,0.845566667 21.5841815,1.22056667 20.8334169,1.9199 L21.3714871,2.4579 C21.8832205,2.07756667 22.4909664,1.87623333 23.1303831,1.87623333 C24.7565952,1.87623333 26.0794344,3.19923333 26.0794344,4.8249 C26.0794344,5.61256667 25.7727277,6.3529 25.2156551,6.9099 C23.5447705,8.58056667 21.6335213,7.6069 19.4202326,6.48023333 C17.8763646,5.6939 16.1264698,4.80256667 13.9951918,4.4549 C11.52787,4.05256667 9.0372119,4.47156667 6.38086548,5.73556667 C6.12783248,5.85623333 5.93547406,6.07823333 5.85246323,6.34456667 C5.76945241,6.61123333 5.80212333,6.90323333 5.94214159,7.14523333 L6.00881696,7.26056667 C6.01048384,7.26323333 6.01181735,7.26556667 6.01315085,7.26823333 L7.75504469,10.2785667 C8.02808029,10.7509 8.63782648,10.9182333 9.11388856,10.6515667 L9.15922781,10.6265667 C9.17756353,10.6162333 9.19623263,10.6072333 9.21556849,10.6002333 L9.91966031,10.2059 C10.0173397,10.1462333 11.3118419,9.3469 12.3779809,8.37223333 C12.5533371,8.21223333 12.8253726,8.22423333 12.9857268,8.39956667 C13.1460811,8.5749 13.1337461,8.8469 12.9587233,9.00723333 C11.7915711,10.0742333 10.4177253,10.9102333 10.3597177,10.9452333 C10.3553838,10.9479 10.3513833,10.9502333 10.3470494,10.9529 L9.54294452,11.4022333 C9.52260853,11.4135667 9.50193917,11.4235667 9.48060305,11.4309 C8.60482217,11.8842333 7.50767909,11.5685667 7.01061427,10.7092333 L5.49941719,8.0979 L5.17670844,8.32056667 C3.55983091,9.46256667 2.3193358,11.1142333 1.59357449,13.0939 C0.80647184,15.2405667 0.649451363,17.7462333 1.1391819,20.3409 L3.06810012,20.3409 C3.2811279,18.7102333 4.68164388,17.4815667 6.32985882,17.4815667 C7.97774039,17.4815667 9.37825637,18.7102333 9.59128415,20.3409 L11.471196,20.3409 C11.6842238,18.7102333 13.0847397,17.4815667 14.7329547,17.4815667 C16.3808363,17.4815667 17.7813522,18.7102333 17.9947134,20.3409 L17.9947134,20.3409 Z M19.8612902,21.2012333 L17.983712,21.2012333 C17.5579898,21.2012333 17.1962759,20.8825667 17.1426023,20.4599 C16.9885822,19.2522333 15.9527804,18.3419 14.7329547,18.3419 C13.5131289,18.3419 12.4769938,19.2522333 12.3229737,20.4599 C12.2693001,20.8825667 11.9075862,21.2012333 11.4821974,21.2012333 L9.58061609,21.2012333 C9.15489391,21.2012333 8.79318007,20.8825667 8.7395064,20.4599 C8.58548632,19.2522333 7.54935119,18.3419 6.32985882,18.3419 C5.11003308,18.3419 4.07389795,19.2522333 3.91987787,20.4599 C3.8662042,20.8825667 3.50482374,21.2012333 3.07910155,21.2012333 L1.12884722,21.2012333 C0.721794131,21.2012333 0.371415104,20.9105667 0.295738568,20.5102333 C-0.224996009,17.7599 -0.0556405895,15.0929 0.785802478,12.7979 C1.57223837,10.6532333 2.92008081,8.86123333 4.68431089,7.61523333 L5.08269618,7.34056667 C4.92300869,6.94456667 4.9026727,6.50056667 5.03102277,6.08923333 C5.18504286,5.5939 5.54208942,5.18223333 6.01115059,4.9589 C12.3786477,1.9289 16.6742079,4.11656667 19.8106169,5.71356667 C22.1549226,6.90756667 23.4327559,7.4759 24.6072424,6.30156667 C25.0019606,5.90723333 25.2189889,5.3829 25.2189889,4.8249 C25.2189889,3.67356667 24.2822,2.73656667 23.1303831,2.73656667 C22.6753238,2.73656667 22.2426007,2.88023333 21.8795534,3.15223333 C21.5438429,3.4039 21.0667807,3.37023333 20.7704087,3.07356667 L20.2170032,2.5199 C20.0553155,2.35823333 19.964637,2.13423333 19.9683041,1.90556667 C19.9723046,1.6769 20.069984,1.45623333 20.2366724,1.30023333 C21.1521252,0.442233333 22.3506148,-0.0177666667 23.6067786,0.000566666667 C24.8672763,0.0202333333 26.0520975,0.522233333 26.9432137,1.4129 C27.367269,1.83723333 28.7371143,3.4129 28.5594245,5.89056667 C28.3744004,8.47523333 26.6155043,11.0312333 23.3317427,13.4879 C22.5679765,14.0592333 20.7837438,15.8729 20.7094008,20.3669 C20.7017331,20.8269 20.3213501,21.2012333 19.8612902,21.2012333 L19.8612902,21.2012333 Z M149.635548,16.4462333 C149.635548,16.0225667 149.576207,15.6422333 149.456524,15.3055667 C149.337509,14.9689 149.169153,14.6842333 148.951792,14.4509 C148.73443,14.2179 148.476063,14.0385667 148.176357,13.9139 C147.876985,13.7895667 147.546942,13.7272333 147.186228,13.7272333 C146.778508,13.7272333 146.412794,13.7909 146.089085,13.9179 C145.766043,14.0455667 145.486006,14.2282333 145.249976,14.4669 C145.014278,14.7052333 144.82492,14.9912333 144.681902,15.3255667 C144.53855,15.6595667 144.44287,16.0332333 144.395531,16.4462333 L149.635548,16.4462333 Z M144.355859,16.9312333 L144.355859,17.0825667 C144.355859,17.6762333 144.424535,18.1985667 144.562553,18.6485667 C144.700237,19.0992333 144.896596,19.4772333 145.150963,19.7815667 C145.405663,20.0865667 145.712703,20.3159 146.073416,20.4692333 C146.433797,20.6232333 146.836849,20.6999 147.282241,20.6999 C147.679626,20.6999 148.024004,20.6562333 148.315709,20.5689 C148.607414,20.4815667 148.852445,20.3832333 149.051138,20.2745667 C149.250164,20.1659 149.407518,20.0679 149.524533,19.9809 C149.640882,19.8929 149.725893,19.8492333 149.7789,19.8492333 C149.847575,19.8492333 149.900916,19.8759 149.937587,19.9285667 L150.144614,20.1832333 C150.017597,20.3425667 149.848909,20.4905667 149.639548,20.6285667 C149.430188,20.7665667 149.196824,20.8845667 148.93979,20.9822333 C148.682757,21.0802333 148.407387,21.1589 148.113016,21.2169 C147.818977,21.2749 147.523272,21.3042333 147.226233,21.3042333 C146.685496,21.3042333 146.192432,21.2102333 145.747374,21.0222333 C145.301982,20.8342333 144.920266,20.5595667 144.602225,20.1992333 C144.284183,19.8389 144.038818,19.3979 143.866795,18.8752333 C143.694106,18.3535667 143.608428,17.7559 143.608428,17.0825667 C143.608428,16.5155667 143.688772,15.9919 143.850793,15.5122333 C144.012481,15.0325667 144.245511,14.6192333 144.550551,14.2722333 C144.855258,13.9249 145.228973,13.6532333 145.671697,13.4569 C146.114088,13.2609 146.616487,13.1629 147.178561,13.1629 C147.623619,13.1629 148.037673,13.2395667 148.419056,13.3935667 C148.800772,13.5472333 149.132149,13.7709 149.413185,14.0649 C149.693889,14.3592333 149.915251,14.7209 150.076939,15.1505667 C150.238626,15.5799 150.319637,16.0729 150.319637,16.6292333 C150.319637,16.7459 150.303635,16.8255667 150.271964,16.8679 C150.240293,16.9102333 150.186619,16.9312333 150.11261,16.9312333 L144.355859,16.9312333 Z M141.676176,14.2682333 C141.633837,14.3422333 141.573163,14.3792333 141.493152,14.3792333 C141.434811,14.3792333 141.360802,14.3459 141.270457,14.2799 C141.180445,14.2135667 141.060096,14.1395667 140.908743,14.0572333 C140.757723,13.9749 140.570699,13.9009 140.348336,13.8345667 C140.125641,13.7685667 139.855272,13.7352333 139.537231,13.7352333 C139.25086,13.7352333 138.989493,13.7762333 138.753795,13.8585667 C138.517764,13.9405667 138.316738,14.0509 138.149383,14.1885667 C137.982695,14.3265667 137.854011,14.4865667 137.763999,14.6695667 C137.673988,14.8525667 137.628648,15.0445667 137.628648,15.2455667 C137.628648,15.4952333 137.692323,15.7019 137.819673,15.8659 C137.947023,16.0305667 138.112378,16.1709 138.316738,16.2872333 C138.520765,16.4042333 138.755129,16.5049 139.020163,16.5895667 C139.285198,16.6745667 139.554233,16.7592333 139.827269,16.8439 C140.100637,16.9285667 140.369339,17.0229 140.634707,17.1262333 C140.899408,17.2299 141.134106,17.3582333 141.338132,17.5115667 C141.542159,17.6655667 141.707847,17.8539 141.835197,18.0765667 C141.962214,18.2992333 142.025889,18.5692333 142.025889,18.8872333 C142.025889,19.2319 141.964881,19.5525667 141.843198,19.8492333 C141.721182,20.1465667 141.542159,20.4032333 141.306461,20.6205667 C141.070431,20.8382333 140.780059,21.0102333 140.435348,21.1372333 C140.091303,21.2645667 139.695918,21.3282333 139.25086,21.3282333 C138.694121,21.3282333 138.214391,21.2392333 137.811672,21.0619 C137.40862,20.8845667 137.048239,20.6522333 136.730198,20.3662333 L136.905221,20.0959 C136.931558,20.0532333 136.961895,20.0219 136.996566,20.0002333 C137.030904,19.9792333 137.077243,19.9682333 137.135584,19.9682333 C137.204593,19.9682333 137.287937,20.0109 137.38595,20.0959 C137.483963,20.1805667 137.615313,20.2722333 137.779668,20.3702333 C137.944023,20.4682333 138.146716,20.5595667 138.388081,20.6445667 C138.629112,20.7295667 138.927484,20.7715667 139.282531,20.7715667 C139.616574,20.7715667 139.910946,20.7252333 140.165313,20.6325667 C140.419679,20.5399 140.631707,20.4139 140.801396,20.2549 C140.970751,20.0959 141.099768,19.9092333 141.187113,19.6942333 C141.274457,19.4799 141.318463,19.2532333 141.318463,19.0142333 C141.318463,18.7495667 141.254788,18.5295667 141.127438,18.3545667 C141.000421,18.1799 140.833066,18.0312333 140.626706,17.9095667 C140.419679,17.7875667 140.185315,17.6842333 139.922614,17.5992333 C139.660247,17.5145667 139.391212,17.4295667 139.115509,17.3449 C138.839806,17.2599 138.571105,17.1675667 138.308404,17.0665667 C138.046036,16.9662333 137.811672,16.8385667 137.604645,16.6852333 C137.398285,16.5312333 137.231263,16.3442333 137.103913,16.1242333 C136.976563,15.9045667 136.912888,15.6302333 136.912888,15.3012333 C136.912888,15.0205667 136.973896,14.7502333 137.095912,14.4905667 C137.217928,14.2309 137.391618,14.0029 137.61698,13.8065667 C137.84201,13.6105667 138.116045,13.4542333 138.439754,13.3375667 C138.762796,13.2212333 139.126177,13.1629 139.52923,13.1629 C140.011293,13.1629 140.439682,13.2315667 140.813397,13.3695667 C141.187113,13.5072333 141.527824,13.7192333 141.835197,14.0059 L141.676176,14.2682333 Z M133.875826,21.2012333 L134.631258,21.2012333 L134.631258,13.2902333 L133.875826,13.2902333 L133.875826,21.2012333 Z M134.9573,10.5632333 C134.9573,10.6582333 134.937297,10.7469 134.897626,10.8292333 C134.85762,10.9119 134.805947,10.9842333 134.742605,11.0479 C134.67893,11.1112333 134.604254,11.1619 134.51991,11.1989 C134.434565,11.2362333 134.344887,11.2545667 134.249208,11.2545667 C134.154195,11.2545667 134.06385,11.2362333 133.979173,11.1989 C133.894161,11.1619 133.819818,11.1112333 133.756477,11.0479 C133.692802,10.9842333 133.642129,10.9119 133.605457,10.8292333 C133.568119,10.7469 133.549783,10.6582333 133.549783,10.5632333 C133.549783,10.4675667 133.568119,10.3759 133.605457,10.2885667 C133.642129,10.2012333 133.692802,10.1255667 133.756477,10.0622333 C133.819818,9.99823333 133.894161,9.94823333 133.979173,9.91123333 C134.06385,9.87356667 134.154195,9.85523333 134.249208,9.85523333 C134.344887,9.85523333 134.434565,9.87356667 134.51991,9.91123333 C134.604254,9.94823333 134.67893,9.99823333 134.742605,10.0622333 C134.805947,10.1255667 134.85762,10.2012333 134.897626,10.2885667 C134.937297,10.3759 134.9573,10.4675667 134.9573,10.5632333 L134.9573,10.5632333 Z M128.889842,15.1982333 C129.011858,14.8749 129.15121,14.5872333 129.307563,14.3355667 C129.463584,14.0835667 129.64394,13.8705667 129.848634,13.6955667 C130.052327,13.5205667 130.280357,13.3865667 130.532056,13.2939 C130.784089,13.2012333 131.063459,13.1545667 131.370832,13.1545667 C131.535187,13.1545667 131.696875,13.1692333 131.855896,13.1985667 C132.01525,13.2279 132.155601,13.2792333 132.277617,13.3539 L132.213942,13.8782333 C132.187272,13.9632333 132.136932,14.0059 132.062923,14.0059 C131.999248,14.0059 131.902568,13.9872333 131.772551,13.9499 C131.642534,13.9129 131.471512,13.8942333 131.259484,13.8942333 C130.952111,13.8942333 130.680742,13.9405667 130.444712,14.0332333 C130.209014,14.1262333 129.996653,14.2652333 129.808295,14.4509 C129.620271,14.6362333 129.455916,14.8655667 129.315564,15.1382333 C129.174879,15.4115667 129.046196,15.7255667 128.929514,16.0805667 L128.929514,21.2012333 L128.166748,21.2012333 L128.166748,13.2899 L128.572134,13.2899 C128.661812,13.2899 128.725487,13.3085667 128.762826,13.3455667 C128.79983,13.3829 128.823834,13.4462333 128.834502,13.5365667 L128.889842,15.1982333 Z M120.159037,19.4755667 C120.313057,19.7039 120.473411,19.8959 120.640433,20.0522333 C120.807121,20.2085667 120.983144,20.3355667 121.168835,20.4335667 C121.354526,20.5319 121.551885,20.6019 121.761246,20.6445667 C121.97094,20.6872333 122.191969,20.7082333 122.425332,20.7082333 C122.891727,20.7082333 123.300113,20.6232333 123.650159,20.4539 C123.999871,20.2842333 124.292909,20.0439 124.52894,19.7339 C124.764637,19.4239 124.941994,19.0529 125.061343,18.6209 C125.181025,18.1892333 125.240366,17.7132333 125.240366,17.1939 C125.240366,16.0169 125.023005,15.1519 124.588281,14.5979 C124.153891,14.0439 123.530477,13.7669 122.719371,13.7669 C122.194969,13.7669 121.72024,13.9022333 121.296185,14.1725667 C120.871796,14.4425667 120.493414,14.8192333 120.159037,15.3012333 L120.159037,19.4755667 Z M120.127366,14.7132333 C120.477078,14.2362333 120.886798,13.8569 121.35586,13.5762333 C121.825254,13.2952333 122.351323,13.1545667 122.934399,13.1545667 C123.904525,13.1545667 124.661291,13.4915667 125.204361,14.1645667 C125.747766,14.8379 126.019468,15.8475667 126.019468,17.1939 C126.019468,17.7715667 125.944125,18.3109 125.793105,18.8119 C125.641752,19.3125667 125.419056,19.7472333 125.125018,20.1155667 C124.830979,20.4839 124.470599,20.7742333 124.043877,20.9862333 C123.616821,21.1985667 123.12509,21.3042333 122.568351,21.3042333 C122.032948,21.3042333 121.569221,21.2062333 121.176836,21.0102333 C120.784785,20.8142333 120.445408,20.5252333 120.159037,20.1435667 L120.159037,23.9995667 L119.395937,23.9995667 L119.395937,13.2899 L119.817326,13.2899 C119.949676,13.2899 120.026686,13.3562333 120.047689,13.4885667 L120.127366,14.7132333 Z M114.497632,15.1982333 C114.619648,14.8749 114.758666,14.5872333 114.915353,14.3355667 C115.071373,14.0835667 115.25173,13.8705667 115.45609,13.6955667 C115.660117,13.5205667 115.888147,13.3865667 116.139513,13.2939 C116.391546,13.2012333 116.671249,13.1545667 116.978622,13.1545667 C117.142977,13.1545667 117.304665,13.1692333 117.463685,13.1985667 C117.622706,13.2279 117.763058,13.2792333 117.885074,13.3539 L117.821399,13.8782333 C117.795062,13.9632333 117.744389,14.0059 117.670379,14.0059 C117.606704,14.0059 117.510025,13.9872333 117.380341,13.9499 C117.250324,13.9129 117.079302,13.8942333 116.867274,13.8942333 C116.559901,13.8942333 116.288199,13.9405667 116.052168,14.0332333 C115.816471,14.1262333 115.604443,14.2652333 115.416085,14.4509 C115.22806,14.6362333 115.063372,14.8655667 114.923021,15.1382333 C114.782336,15.4115667 114.653986,15.7255667 114.537304,16.0805667 L114.537304,21.2012333 L113.774204,21.2012333 L113.774204,13.2899 L114.179924,13.2899 C114.269602,13.2899 114.333277,13.3085667 114.370615,13.3455667 C114.407287,13.3829 114.43129,13.4462333 114.441958,13.5365667 L114.497632,15.1982333 Z M111.030513,16.4462333 C111.030513,16.0225667 110.971172,15.6422333 110.85149,15.3055667 C110.732141,14.9689 110.564119,14.6842333 110.346424,14.4509 C110.129396,14.2179 109.870695,14.0385667 109.571323,13.9139 C109.271617,13.7895667 108.941574,13.7272333 108.581194,13.7272333 C108.17314,13.7272333 107.807426,13.7909 107.484051,13.9179 C107.160675,14.0455667 106.880972,14.2282333 106.644941,14.4669 C106.40891,14.7052333 106.219886,14.9912333 106.076534,15.3255667 C105.933515,15.6595667 105.837836,16.0332333 105.790163,16.4462333 L111.030513,16.4462333 Z M105.750491,16.9312333 L105.750491,17.0825667 C105.750491,17.6762333 105.819167,18.1985667 105.957518,18.6485667 C106.095203,19.0992333 106.291228,19.4772333 106.545928,19.7815667 C106.800295,20.0865667 107.107335,20.3159 107.468048,20.4692333 C107.828429,20.6232333 108.231481,20.6999 108.676873,20.6999 C109.074591,20.6999 109.418636,20.6562333 109.710341,20.5689 C110.002046,20.4815667 110.247411,20.3832333 110.44577,20.2745667 C110.645129,20.1659 110.802483,20.0679 110.919165,19.9809 C111.035847,19.8929 111.120525,19.8492333 111.173532,19.8492333 C111.242541,19.8492333 111.295548,19.8759 111.332552,19.9285667 L111.539579,20.1832333 C111.41223,20.3425667 111.243541,20.4905667 111.034514,20.6285667 C110.825153,20.7665667 110.591456,20.8845667 110.334756,20.9822333 C110.077722,21.0802333 109.80202,21.1589 109.507981,21.2169 C109.213609,21.2749 108.917904,21.3042333 108.620865,21.3042333 C108.080462,21.3042333 107.587397,21.2102333 107.142006,21.0222333 C106.696948,20.8342333 106.314898,20.5595667 105.99719,20.1992333 C105.679149,19.8389 105.433783,19.3979 105.261761,18.8752333 C105.089072,18.3535667 105.00306,17.7559 105.00306,17.0825667 C105.00306,16.5155667 105.083738,15.9919 105.245425,15.5122333 C105.407446,15.0325667 105.640143,14.6192333 105.945183,14.2722333 C106.250223,13.9249 106.623938,13.6532333 107.066663,13.4569 C107.509054,13.2609 108.011453,13.1629 108.573526,13.1629 C109.018584,13.1629 109.432305,13.2395667 109.814021,13.3935667 C110.195404,13.5472333 110.526781,13.7709 110.807817,14.0649 C111.088854,14.3592333 111.309883,14.7209 111.471904,15.1505667 C111.633592,15.5799 111.714602,16.0729 111.714602,16.6292333 C111.714602,16.7459 111.698267,16.8255667 111.666596,16.8679 C111.634925,16.9102333 111.581585,16.9312333 111.507575,16.9312333 L105.750491,16.9312333 Z M102.220031,21.3282333 C101.684294,21.3282333 101.266906,21.1799 100.967534,20.8829 C100.668162,20.5862333 100.518142,20.1279 100.518142,19.5075667 L100.518142,14.1009 L99.3809938,14.1009 C99.3226529,14.1009 99.2753134,14.0852333 99.2379752,14.0532333 C99.200637,14.0215667 99.1823012,13.9765667 99.1823012,13.9179 L99.1823012,13.6239 L100.534144,13.5282333 L100.725169,10.6979 C100.735504,10.6502333 100.75684,10.6079 100.788844,10.5709 C100.820182,10.5339 100.865521,10.5149 100.923528,10.5149 L101.281575,10.5149 L101.281575,13.5365667 L103.778234,13.5365667 L103.778234,14.1009 L101.281575,14.1009 L101.281575,19.4679 C101.281575,19.6852333 101.309579,19.8715667 101.364919,20.0282333 C101.420927,20.1845667 101.497603,20.3132333 101.595949,20.4139 C101.693962,20.5145667 101.80931,20.5885667 101.941661,20.6365667 C102.074012,20.6842333 102.217364,20.7082333 102.37105,20.7082333 C102.561742,20.7082333 102.726097,20.6802333 102.864115,20.6242333 C103.001799,20.5689 103.120815,20.5082333 103.221828,20.4415667 C103.322508,20.3752333 103.404852,20.3145667 103.468527,20.2589 C103.531868,20.2032333 103.582208,20.1755667 103.619547,20.1755667 C103.661885,20.1755667 103.704224,20.2019 103.746563,20.2549 L103.95359,20.5885667 C103.751897,20.8112333 103.496531,20.9902333 103.186157,21.1255667 C102.876116,21.2605667 102.554074,21.3282333 102.220031,21.3282333 L102.220031,21.3282333 Z M92.1367157,14.6735667 C92.5027635,14.2179 92.9254853,13.8519 93.4055479,13.5762333 C93.8849437,13.3009 94.4193468,13.1629 95.0077568,13.1629 C95.4421468,13.1629 95.8251968,13.2315667 96.1565733,13.3695667 C96.4879499,13.5072333 96.762319,13.7062333 96.9796807,13.9659 C97.1970423,14.2255667 97.3613971,14.5382333 97.472745,14.9039 C97.5840928,15.2699 97.6397667,15.6829 97.6397667,16.1442333 L97.6397667,21.2012333 L96.8763338,21.2012333 L96.8763338,16.1442333 C96.8763338,15.4019 96.7066451,14.8205667 96.3672675,14.3989 C96.0282232,13.9779 95.5114892,13.7669 94.8170653,13.7669 C94.3026649,13.7669 93.8216021,13.8982333 93.3735437,14.1609 C92.9254853,14.4232333 92.5267666,14.7872333 92.176721,15.2539 L92.176721,21.2012333 L91.4136214,21.2012333 L91.4136214,13.2899 L91.8350097,13.2899 C91.9673603,13.2899 92.0443704,13.3562333 92.0653731,13.4885667 L92.1367157,14.6735667 Z M89.5847163,20.5252333 L89.5683808,21.2012333 L82.8255014,21.2012333 L82.8255014,9.9509 L89.5683808,9.9509 L89.5683808,10.6262333 L83.6446083,10.6262333 L83.6446083,15.1742333 L88.5745845,15.1742333 L88.5745845,15.8339 L83.6446083,15.8339 L83.6446083,20.5252333 L89.5847163,20.5252333 Z M75.0331519,16.1842333 C75.0331519,15.9295667 74.9971472,15.6899 74.9258046,15.4645667 C74.8541286,15.2392333 74.7467812,15.0415667 74.6034292,14.8719 C74.4604105,14.7025667 74.2790536,14.5685667 74.0586915,14.4705667 C73.8389962,14.3725667 73.5832962,14.3235667 73.2915914,14.3235667 C72.7241841,14.3235667 72.2777926,14.4852333 71.95175,14.8085667 C71.6257075,15.1319 71.417347,15.5905667 71.3276687,16.1842333 L75.0331519,16.1842333 Z M71.2876634,17.3685667 C71.3196676,17.7875667 71.3936773,18.1489 71.5103591,18.4539 C71.6267077,18.7589 71.7807277,19.0102333 71.9714193,19.2095667 C72.1624442,19.4082333 72.3891404,19.5565667 72.651508,19.6545667 C72.9138755,19.7525667 73.2039133,19.8015667 73.5222882,19.8015667 C73.8399963,19.8015667 74.1146988,19.7645667 74.3450622,19.6902333 C74.5760923,19.6165667 74.7771185,19.5342333 74.9494743,19.4439 C75.1218301,19.3539 75.2728498,19.2719 75.4028668,19.1972333 C75.5325504,19.1232333 75.6585668,19.0859 75.7802493,19.0859 C75.9446041,19.0859 76.06662,19.1472333 76.1462971,19.2689 L76.710704,19.9845667 C76.4933423,20.2389 76.2496439,20.4525667 75.9792753,20.6242333 C75.7089067,20.7969 75.4265365,20.9349 75.1324982,21.0379 C74.8381265,21.1412333 74.5387541,21.2142333 74.2337143,21.2569 C73.9290079,21.2992333 73.6336361,21.3202333 73.3472654,21.3202333 C72.779858,21.3202333 72.2524559,21.2259 71.765059,21.0379 C71.2769954,20.8499 70.8529401,20.5715667 70.4925597,20.2032333 C70.1321794,19.8345667 69.8484758,19.3792333 69.6417821,18.8355667 C69.4347551,18.2922333 69.3314083,17.6625667 69.3314083,16.9472333 C69.3314083,16.3909 69.4217534,15.8675667 69.6021103,15.3769 C69.7821338,14.8865667 70.0405008,14.4602333 70.3772114,14.0969 C70.7135886,13.7339 71.1246422,13.4462333 71.6100388,13.2339 C72.0947687,13.0225667 72.6421734,12.9162333 73.2519196,12.9162333 C73.7659866,12.9162333 74.2407152,12.9985667 74.6751052,13.1629 C75.1098286,13.3272333 75.483544,13.5669 75.7962514,13.8822333 C76.1092922,14.1979 76.3543242,14.5845667 76.532014,15.0432333 C76.7093705,15.5015667 76.7983821,16.0249 76.7983821,16.6135667 C76.7983821,16.9102333 76.7663779,17.1102333 76.7030363,17.2135667 C76.6393614,17.3169 76.5173455,17.3685667 76.337322,17.3685667 L71.2876634,17.3685667 Z M65.8486208,21.2012333 L67.812877,21.2012333 L67.812877,9.38623333 L65.8486208,9.38623333 L65.8486208,21.2012333 Z M61.9204418,15.1265667 C61.6977461,14.8565667 61.4557146,14.6655667 61.1930136,14.5542333 C60.9306461,14.4425667 60.6486093,14.3872333 60.3462365,14.3872333 C60.0491978,14.3872333 59.7814962,14.4425667 59.5427984,14.5542333 C59.304434,14.6655667 59.1004074,14.8339 58.9307186,15.0589 C58.7610298,15.2845667 58.6313462,15.5705667 58.5413345,15.9179 C58.4509894,16.2649 58.4056501,16.6745667 58.4056501,17.1462333 C58.4056501,17.6229 58.4443218,18.0272333 58.5209985,18.3582333 C58.5980086,18.6899 58.7083563,18.9602333 58.8510416,19.1699 C58.9940602,19.3792333 59.169083,19.5302333 59.37611,19.6225667 C59.5828037,19.7155667 59.8135004,19.7619 60.0678669,19.7619 C60.4759201,19.7619 60.8232988,19.6769 61.1096694,19.5075667 C61.3960401,19.3379 61.6660753,19.0965667 61.9204418,18.7839 L61.9204418,15.1265667 Z M63.884698,9.3859 L63.884698,21.2012333 L62.6838747,21.2012333 C62.4241742,21.2012333 62.2598194,21.0815667 62.1911438,20.8429 L62.0237887,20.0562333 C61.6954125,20.4325667 61.3173632,20.7372333 60.8906409,20.9705667 C60.4642519,21.2035667 59.9668537,21.3202333 59.3997798,21.3202333 C58.9543884,21.3202333 58.5466685,21.2275667 58.1752868,21.0419 C57.8042384,20.8565667 57.4848634,20.5875667 57.2171618,20.2349 C56.9494602,19.8825667 56.7427666,19.4465667 56.5970809,18.9269 C56.4510619,18.4079 56.3783858,17.8142333 56.3783858,17.1462333 C56.3783858,16.5419 56.4600631,15.9802333 56.6247512,15.4605667 C56.789106,14.9409 57.0251368,14.4905667 57.3325102,14.1085667 C57.6398836,13.7272333 58.008265,13.4292333 58.4376543,13.2145667 C58.867377,12.9995667 59.3494399,12.8925667 59.8851764,12.8925667 C60.3405691,12.8925667 60.7302866,12.9639 61.0539955,13.1069 C61.3770376,13.2502333 61.6660753,13.4439 61.9204418,13.6875667 L61.9204418,9.3859 L63.884698,9.3859 Z M53.0386169,17.7185667 C52.4712095,17.7452333 51.9941473,17.7942333 51.6074302,17.8655667 C51.2203798,17.9372333 50.9100059,18.0285667 50.6769756,18.1399 C50.4436118,18.2509 50.27659,18.3815667 50.1759102,18.5295667 C50.0752304,18.6779 50.0248905,18.8399 50.0248905,19.0142333 C50.0248905,19.3589 50.1269038,19.6059 50.3309304,19.7539 C50.534957,19.9022333 50.8016585,19.9769 51.130368,19.9769 C51.5327538,19.9769 51.8817993,19.9035667 52.1758377,19.7582333 C52.4702094,19.6119 52.7575802,19.3909 53.0386169,19.0935667 L53.0386169,17.7185667 Z M48.5376966,14.1802333 C49.4761523,13.3219 50.6052995,12.8925667 51.9254717,12.8925667 C52.4025339,12.8925667 52.8292562,12.9705667 53.2056387,13.1272333 C53.5820211,13.2835667 53.9000626,13.5005667 54.1597631,13.7789 C54.4194636,14.0572333 54.6171561,14.3899 54.7521737,14.7769 C54.8875247,15.1635667 54.9548668,15.5879 54.9548668,16.0489 L54.9548668,21.2012333 L54.0644173,21.2012333 C53.8790598,21.2012333 53.7357078,21.1732333 53.6346946,21.1175667 C53.5343482,21.0619 53.4546711,20.9495667 53.3963302,20.7792333 L53.2216407,20.1909 C53.0149471,20.3769 52.8129208,20.5399 52.6172286,20.6802333 C52.421203,20.8205667 52.216843,20.9389 52.0048154,21.0339 C51.7924544,21.1295667 51.5660915,21.2022333 51.3250601,21.2525667 C51.0836953,21.3029 50.8173272,21.3282333 50.5259559,21.3282333 C50.1812442,21.3282333 49.8632028,21.2819 49.5714981,21.1892333 C49.2801267,21.0962333 49.0280939,20.9572333 48.8163996,20.7715667 C48.6040386,20.5862333 48.4396838,20.3559 48.3230019,20.0795667 C48.20632,19.8042333 48.1483125,19.4835667 48.1483125,19.1179 C48.1483125,18.9112333 48.1826503,18.7059 48.2513259,18.5015667 C48.3206683,18.2975667 48.4333496,18.1029 48.5897034,17.9172333 C48.7457237,17.7315667 48.9487502,17.5569 49.1977827,17.3925667 C49.4468151,17.2282333 49.7531884,17.0852333 50.1162358,16.9632333 C50.4792831,16.8415667 50.9020049,16.7419 51.3847345,16.6649 C51.8671308,16.5885667 52.4182026,16.5419 53.0386169,16.5255667 L53.0386169,16.0489 C53.0386169,15.5029 52.921935,15.0985667 52.6889046,14.8362333 C52.4555408,14.5739 52.1188303,14.4425667 51.6787729,14.4425667 C51.3607314,14.4425667 51.096697,14.4799 50.8876697,14.5542333 C50.6783091,14.6285667 50.4942851,14.7119 50.334931,14.8042333 C50.1759102,14.8975667 50.0315581,14.9809 49.9018745,15.0549 C49.7715241,15.1295667 49.627172,15.1662333 49.4684846,15.1662333 C49.3301332,15.1662333 49.2141181,15.1305667 49.118439,15.0589 C49.0230932,14.9872333 48.9460832,14.9039 48.8877422,14.8085667 L48.5376966,14.1802333 Z M44.7528696,14.4585667 C45.0072362,13.9709 45.3096089,13.5882333 45.6593212,13.3102333 C46.0090335,13.0315667 46.4227541,12.8925667 46.9001497,12.8925667 C47.2761987,12.8925667 47.5782381,12.9745667 47.8062678,13.1389 L47.6792513,14.6095667 C47.6525811,14.7052333 47.6139094,14.7729 47.5639029,14.8129 C47.5132296,14.8525667 47.4458875,14.8719 47.3608764,14.8719 C47.2815328,14.8719 47.1635174,14.8589 47.0071636,14.8322333 C46.8511433,14.8059 46.6984567,14.7925667 46.550104,14.7925667 C46.3327424,14.7925667 46.1390504,14.8245667 45.9693616,14.8882333 C45.7996728,14.9515667 45.6473196,15.0432333 45.512302,15.1622333 C45.376951,15.2815667 45.2579355,15.4262333 45.1545887,15.5955667 C45.0509085,15.7652333 44.9545626,15.9589 44.8642175,16.1762333 L44.8642175,21.2012333 L42.8999613,21.2012333 L42.8999613,13.0432333 L44.0531117,13.0432333 C44.2548047,13.0432333 44.394823,13.0789 44.4745,13.1505667 C44.5541771,13.2222333 44.607184,13.3509 44.6338541,13.5365667 L44.7528696,14.4585667 Z M41.2620811,15.4369 L41.2620811,20.0879 C40.6786717,20.5172333 40.0575907,20.8312333 39.3975046,21.0299 C38.7374185,21.2289 38.030993,21.3282333 37.2782282,21.3282333 C36.3397725,21.3282333 35.4903284,21.1822333 34.7295625,20.8909 C33.96913,20.5992333 33.3193786,20.1939 32.7813084,19.6745667 C32.2435716,19.1549 31.8288509,18.5349 31.5371462,17.8142333 C31.2454415,17.0929 31.0997558,16.3059 31.0997558,15.4525667 C31.0997558,14.5889 31.2401074,13.7965667 31.5211441,13.0752333 C31.8021807,12.3545667 32.2008994,11.7342333 32.7176334,11.2149 C33.2347009,10.6955667 33.8614493,10.2925667 34.5985454,10.0062333 C35.3353082,9.72023333 36.162416,9.57723333 37.0795356,9.57723333 C37.5459298,9.57723333 37.9819866,9.6139 38.3873728,9.68856667 C38.792759,9.76256667 39.1694748,9.86456667 39.5165201,9.99456667 C39.8638987,10.1242333 40.1806067,10.2822333 40.4669774,10.4675667 C40.7533481,10.6532333 41.0157156,10.8569 41.2544134,11.0795667 L40.6420002,12.0499 C40.5463211,12.2035667 40.4216381,12.2975667 40.2682848,12.3319 C40.1142647,12.3662333 39.9472429,12.3282333 39.7672195,12.2169 C39.5921966,12.1159 39.4171738,12.0152333 39.2424844,11.9142333 C39.0674615,11.8139 38.8727695,11.7265667 38.6580748,11.6519 C38.4430468,11.5782333 38.2020153,11.5172333 37.9343138,11.4689 C37.6666122,11.4215667 37.3579053,11.3979 37.0078596,11.3979 C36.4407857,11.3979 35.9277187,11.4932333 35.4693256,11.6839 C35.0105991,11.8745667 34.6195481,12.1479 34.296506,12.5025667 C33.9727971,12.8579 33.7237647,13.2845667 33.5487418,13.7829 C33.373719,14.2812333 33.2863743,14.8379 33.2863743,15.4525667 C33.2863743,16.1099 33.3803865,16.6969 33.5687444,17.2135667 C33.756769,17.7305667 34.0218035,18.1675667 34.3638481,18.5255667 C34.7058927,18.8835667 35.1179465,19.1565667 35.6003427,19.3442333 C36.082739,19.5325667 36.6208091,19.6265667 37.2145532,19.6265667 C37.6386085,19.6265667 38.017658,19.5815667 38.3513681,19.4915667 C38.6854117,19.4015667 39.0114542,19.2795667 39.3298291,19.1255667 L39.3298291,17.0425667 L37.882307,17.0425667 C37.7446224,17.0425667 37.637275,17.0042333 37.5605984,16.9272333 C37.4835883,16.8509 37.44525,16.7565667 37.44525,16.6455667 L37.44525,15.4369 L41.2620811,15.4369 Z"
          id="Fill-1" fill="currentColor" mask="url(#mask-2)"></path>
      </g>
    </g>
  </g>
</svg>
